<?xml version="1.0" encoding="utf-8"?>
<!-- Generator: Adobe Illustrator 23.1.0, SVG Export Plug-In . SVG Version: 6.00 Build 0)  -->
<svg version="1.1" id="Слой_1" xmlns="http://www.w3.org/2000/svg" xmlns:xlink="http://www.w3.org/1999/xlink" x="0px" y="0px"
	 viewBox="0 0 1000 300" style="enable-background:new 0 0 1000 300;" xml:space="preserve">
<style type="text/css">
	.st0{fill:url(#SVGID_1_);}
	.st1{fill:url(#SVGID_2_);}
</style>
<linearGradient id="SVGID_1_" gradientUnits="userSpaceOnUse" x1="0" y1="-448" x2="299.99" y2="-448" gradientTransform="matrix(1 0 0 -1 0 -298)">
	<stop  offset="0" style="stop-color:#FFF258"/>
	<stop  offset="4.710000e-02" style="stop-color:#FAE252"/>
	<stop  offset="0.1218" style="stop-color:#F4CF4B"/>
	<stop  offset="0.1988" style="stop-color:#F0C446"/>
	<stop  offset="0.2809" style="stop-color:#EFC045"/>
	<stop  offset="0.6685" style="stop-color:#DB8952"/>
	<stop  offset="0.8876" style="stop-color:#D36D50"/>
	<stop  offset="1" style="stop-color:#CE584F"/>
</linearGradient>
<path class="st0" d="M0,300V184l46.2-52.6v41.7L164.3,38.5C186.1,13.7,215.1,0,245.9,0H300l-46.1,52.6h-7.9
	c-18.5,0-35.9,8.2-48.9,23.1L0,300z"/>
<linearGradient id="SVGID_2_" gradientUnits="userSpaceOnUse" x1="0" y1="-448" x2="300" y2="-448" gradientTransform="matrix(1 0 0 -1 0 -298)">
	<stop  offset="0" style="stop-color:#FF604C"/>
	<stop  offset="2.100000e-02" style="stop-color:#FD664C"/>
	<stop  offset="0.1041" style="stop-color:#F7794D"/>
	<stop  offset="0.1897" style="stop-color:#F3844D"/>
	<stop  offset="0.2809" style="stop-color:#F2884D"/>
	<stop  offset="0.6685" style="stop-color:#FFC135"/>
	<stop  offset="0.8876" style="stop-color:#FFC737"/>
	<stop  offset="1" style="stop-color:#FFEB44"/>
</linearGradient>
<path class="st1" d="M300,0v116l-46.1,52.6v-41.7L135.7,261.5C113.9,286.3,84.9,300,54.1,300H0l46.2-52.6h7.9
	c18.5,0,35.9-8.2,49-23.1L300,0z"/>
<g>
	<path d="M312.7,208.8h-6.1v25.6H300v-55.4h6.6v24.7h5.9l17.8-24.7h7.6l-19.5,26.3l22,29H332L312.7,208.8z"/>
	<path d="M349.3,198c2.3-1.3,4.8-2.3,7.7-2.8c2.8-0.6,5.6-0.9,8.4-0.9c2.7,0,4.9,0.4,6.6,1.3c1.7,0.8,3.1,1.9,4,3.3
		c1,1.3,1.6,2.9,2,4.6c0.3,1.7,0.5,3.4,0.5,5.2c0,2-0.1,4.1-0.2,6.4c-0.1,2.3-0.2,4.5-0.2,6.8c0,2.6,0.2,5.1,0.5,7.5h5.3v5.1h-10.4
		l-0.7-5.9h-0.4c-0.3,0.5-0.8,1.1-1.4,1.8c-0.6,0.7-1.5,1.5-2.5,2.2c-1,0.7-2.3,1.3-3.8,1.9c-1.5,0.5-3.2,0.8-5.2,0.8
		c-3.9,0-7-1-9.3-3c-2.3-2-3.4-4.7-3.4-8.2c0-2.7,0.6-4.9,1.8-6.7c1.2-1.8,2.9-3.2,5.1-4.1c2.2-0.9,4.9-1.5,8.1-1.7
		c3.1-0.2,6.7,0.1,10.6,0.6c0.3-2.4,0.3-4.4,0.1-6.1c-0.2-1.6-0.6-2.9-1.3-3.8c-0.7-0.9-1.6-1.6-2.8-2c-1.2-0.4-2.7-0.6-4.4-0.6
		c-2.4,0-4.7,0.3-6.8,1c-2.2,0.7-4.1,1.3-5.8,2L349.3,198z M361,229.9c1.5,0,2.8-0.2,4.1-0.7c1.3-0.5,2.4-1.1,3.3-1.8
		c0.9-0.7,1.7-1.5,2.4-2.4c0.6-0.9,1.1-1.7,1.4-2.5v-5.5c-2.7-0.5-5.3-0.7-7.6-0.7c-2.3,0-4.3,0.3-6,0.8c-1.7,0.5-3,1.3-4,2.3
		c-0.9,1.1-1.4,2.4-1.4,4.1c0,1.7,0.6,3.3,1.8,4.5C356.2,229.2,358.2,229.9,361,229.9z"/>
	<path d="M421.8,200.3h-13.6c-0.2,4.8-0.5,9.3-0.8,13.5c-0.3,4.2-0.9,7.8-1.8,11c-0.9,3.1-2.1,5.6-3.7,7.4c-1.6,1.8-3.8,2.7-6.5,2.7
		c-1.1,0-1.8-0.1-2.3-0.2c-0.5-0.1-1.1-0.3-1.7-0.6l1-5.9c1,0.3,1.9,0.4,2.8,0.4s1.6-0.3,2.3-1c0.7-0.6,1.3-1.6,1.9-3
		c0.6-1.4,1-3.4,1.4-5.9c0.4-2.6,0.7-5.8,1-9.7c0.3-3.9,0.5-8.6,0.6-14.1h25.6v39.6h-6.2V200.3z"/>
	<path d="M470.2,209.6l0.2-5.2h-0.2l-22.1,30.1h-5.7v-39.6h6.3v25.6l-0.2,5h0.3l21.9-30.5h5.8v39.6h-6.3V209.6z"/>
	<path d="M517.4,216.9h-21.2v17.6h-6.1v-39.6h6.1v16.5h21.2v-16.5h6.3v39.6h-6.3V216.9z"/>
	<path d="M565.1,209.6l0.2-5.2h-0.2L543,234.5h-5.7v-39.6h6.2v25.6l-0.2,5h0.3l21.9-30.5h5.8v39.6h-6.3V209.6z"/>
	<path d="M612.3,216.9h-21.2v17.6H585v-39.6h6.1v16.5h21.2v-16.5h6.2v39.6h-6.2V216.9z"/>
	<path d="M633.6,234.5v-5.3h5.1v-28.9h-5.1v-5.4h32v14.8h-5.4v-9.4h-15.3v28.9h12v5.3H633.6z"/>
	<path d="M680.6,208.8c0-0.5,0-1.1,0-1.9c0-0.8-0.1-1.6-0.1-2.4c-0.1-0.8-0.1-1.6-0.2-2.4c-0.1-0.8-0.2-1.5-0.3-2.1h-5.3v-5.1h10.5
		l0.8,5.5h0.4c1.4-1.8,3.2-3.4,5.4-4.6c2.2-1.2,4.9-1.9,8-1.9c5.6,0,9.9,1.6,12.7,4.7c2.8,3.1,4.3,8.2,4.3,15.3c0,3.3-0.5,6.3-1.5,9
		c-1,2.7-2.4,4.9-4.2,6.8c-1.8,1.8-4,3.3-6.5,4.3c-2.5,1-5.3,1.5-8.4,1.5c-1.1,0-2.1,0-3-0.1c-0.9-0.1-1.7-0.2-2.4-0.3
		c-0.7-0.1-1.4-0.3-2.1-0.5c-0.7-0.2-1.4-0.5-2.2-0.8v16.6h-6.1V208.8z M698.8,199.8c-1.6,0-3.1,0.3-4.5,0.9
		c-1.4,0.6-2.6,1.3-3.7,2.3c-1.1,0.9-2,2-2.6,3.2c-0.7,1.2-1.1,2.3-1.3,3.5v18c1.2,0.8,2.5,1.4,3.9,1.9c1.5,0.4,3.4,0.7,5.7,0.7
		c4.2,0,7.6-1.4,10.1-4.1c2.5-2.8,3.8-6.8,3.8-12.1c0-4.5-0.9-7.9-2.6-10.4C705.9,201,702.9,199.8,698.8,199.8z"/>
	<path d="M729,198c2.3-1.3,4.8-2.3,7.7-2.8c2.8-0.6,5.6-0.9,8.4-0.9c2.7,0,4.9,0.4,6.6,1.3c1.7,0.8,3.1,1.9,4,3.3
		c1,1.3,1.6,2.9,2,4.6c0.3,1.7,0.5,3.4,0.5,5.2c0,2-0.1,4.1-0.2,6.4c-0.1,2.3-0.2,4.5-0.2,6.8c0,2.6,0.2,5.1,0.5,7.5h5.3v5.1h-10.4
		l-0.7-5.9H752c-0.3,0.5-0.8,1.1-1.4,1.8c-0.6,0.7-1.5,1.5-2.5,2.2c-1,0.7-2.3,1.3-3.8,1.9c-1.5,0.5-3.2,0.8-5.2,0.8
		c-3.9,0-7-1-9.3-3c-2.3-2-3.4-4.7-3.4-8.2c0-2.7,0.6-4.9,1.8-6.7c1.2-1.8,2.9-3.2,5.1-4.1c2.2-0.9,4.9-1.5,8.1-1.7
		c3.1-0.2,6.7,0.1,10.6,0.6c0.3-2.4,0.3-4.4,0.1-6.1c-0.2-1.6-0.6-2.9-1.3-3.8c-0.7-0.9-1.6-1.6-2.8-2c-1.2-0.4-2.7-0.6-4.4-0.6
		c-2.4,0-4.7,0.3-6.8,1c-2.2,0.7-4.1,1.3-5.8,2L729,198z M740.7,229.9c1.5,0,2.8-0.2,4.1-0.7c1.3-0.5,2.4-1.1,3.3-1.8
		c0.9-0.7,1.7-1.5,2.4-2.4c0.6-0.9,1.1-1.7,1.4-2.5v-5.5c-2.7-0.5-5.3-0.7-7.6-0.7s-4.3,0.3-6,0.8s-3,1.3-4,2.3
		c-1,1.1-1.4,2.4-1.4,4.1c0,1.7,0.6,3.3,1.8,4.5C736,229.2,737.9,229.9,740.7,229.9z"/>
	<path d="M812.7,244h-5.4v-9.5h-31.8v9.5h-5.4v-14.9h4.4c0.5-0.6,1.1-1.6,1.9-3.1s1.6-3.6,2.3-6.3c0.7-2.7,1.4-6.1,2-10.1
		c0.6-4,0.9-8.9,1-14.6h24.8v34.2h6.1V244z M800.4,229.2v-29h-13.1c-0.1,2.3-0.3,4.7-0.6,7.4c-0.3,2.6-0.7,5.3-1.2,7.9
		c-0.5,2.6-1.2,5.1-1.9,7.5c-0.8,2.4-1.6,4.5-2.6,6.2H800.4z"/>
	<path d="M850.1,201c-1.2-0.4-2.5-0.8-3.9-1.1c-1.4-0.3-2.8-0.4-4.2-0.4c-5.2,0-9,1.2-11.6,3.6c-2.5,2.4-3.8,6.3-3.8,11.6
		c0,2.3,0.4,4.4,1.1,6.2c0.7,1.8,1.8,3.4,3.2,4.6c1.4,1.3,3,2.2,4.9,2.9c1.9,0.7,4,1,6.4,1c2.5,0,4.9-0.4,7.2-1.3
		c2.3-0.9,4.3-2,5.9-3.4l2.8,4.6c-0.7,0.6-1.7,1.3-2.8,2c-1.1,0.7-2.4,1.3-3.8,1.9c-1.5,0.6-3.1,1.1-4.8,1.5
		c-1.8,0.4-3.7,0.6-5.7,0.6c-3.4,0-6.4-0.5-9.1-1.5c-2.6-1-4.8-2.4-6.5-4.2c-1.7-1.8-3.1-4-4-6.6c-0.9-2.6-1.3-5.4-1.3-8.5
		c0-3.3,0.5-6.3,1.4-8.9c0.9-2.6,2.3-4.7,4-6.5c1.7-1.7,3.8-3.1,6.3-4c2.5-0.9,5.2-1.4,8.3-1.4c3.9,0,7.1,0.3,9.5,1
		c2.5,0.7,4.5,1.5,6.2,2.3l-0.1,0.2v11h-5.7V201z"/>
	<path d="M882,216.6h-4.4v17.9h-6.1v-39.6h6.1v16.9h4.4l15.6-16.9h7.4l-17.5,18.8l14.4,15.5h5.1v5.3h-8.1L882,216.6z"/>
	<path d="M944.8,209.6l0.2-5.2h-0.2l-22.1,30.1h-5.7v-39.6h6.2v25.6l-0.2,5h0.3l21.9-30.5h5.8v39.6h-6.3V209.6z"/>
	<path d="M999.7,229.5c-1,0.8-2.1,1.6-3.4,2.4c-1.3,0.7-2.7,1.4-4.2,1.9c-1.5,0.5-3.1,0.9-4.8,1.2c-1.7,0.3-3.3,0.4-5,0.4
		c-3.2,0-6-0.5-8.4-1.5c-2.4-1-4.5-2.4-6.1-4.2c-1.6-1.8-2.9-4-3.7-6.5c-0.8-2.5-1.3-5.4-1.3-8.5c0-3.3,0.5-6.3,1.4-8.9
		c0.9-2.6,2.3-4.7,4-6.5c1.7-1.7,3.8-3.1,6.3-4c2.5-0.9,5.2-1.4,8.3-1.4c2.2,0,4.4,0.3,6.6,0.9c2.2,0.6,4.1,1.7,5.7,3.3
		c1.7,1.6,2.9,3.8,3.8,6.6c0.9,2.8,1.2,6.5,0.9,11h-30.5c0,4.7,1.3,8.3,3.8,10.6c2.6,2.3,6,3.5,10.2,3.5c1.4,0,2.8-0.2,4.2-0.5
		c1.4-0.3,2.7-0.8,4-1.2c1.3-0.5,2.4-1,3.4-1.6c1-0.6,1.7-1.1,2.2-1.6L999.7,229.5z M983,199.2c-1.7,0-3.4,0.2-4.9,0.6
		c-1.6,0.4-2.9,1-4.1,1.9c-1.2,0.9-2.2,2-2.9,3.4c-0.8,1.4-1.2,3.1-1.5,5.2h24.5c-0.3-3.5-1.4-6.2-3.4-8.1
		C988.8,200.1,986.2,199.2,983,199.2z"/>
	<path d="M801.6,265.5H788c-0.2,4.8-0.5,9.3-0.8,13.5c-0.3,4.2-0.9,7.8-1.8,11c-0.9,3.1-2.1,5.6-3.7,7.4c-1.6,1.8-3.8,2.7-6.5,2.7
		c-1.1,0-1.8-0.1-2.3-0.2c-0.5-0.1-1.1-0.3-1.7-0.6l1-5.9c1,0.3,1.9,0.4,2.8,0.4c0.9,0,1.6-0.3,2.3-1c0.7-0.6,1.3-1.6,1.9-3
		c0.6-1.4,1-3.4,1.4-5.9c0.4-2.6,0.7-5.8,1-9.7c0.3-3.9,0.5-8.6,0.6-14.1h25.6v39.6h-6.2V265.5z"/>
	<path d="M849.9,274.8l0.2-5.2h-0.2l-22.1,30.1h-5.7v-39.6h6.2v25.6l-0.2,5h0.3l21.9-30.5h5.8v39.6h-6.3V274.8z"/>
	<path d="M897.1,282.1h-21.2v17.6h-6.1v-39.6h6.1v16.5h21.2v-16.5h6.2v39.6h-6.2V282.1z"/>
	<path d="M944.8,274.8l0.2-5.2h-0.2l-22.1,30.1h-5.7v-39.6h6.2v25.6l-0.2,5h0.3l21.9-30.5h5.8v39.6h-6.3V274.8z"/>
	<path d="M992.3,274.8l0.2-5.2h-0.2l-22.1,30.1h-5.7v-39.6h6.2v25.6l-0.2,5h0.3l21.9-30.5h5.8v39.6h-6.3V274.8z"/>
</g>
</svg>
